<svg width="48" height="48" viewBox="0 0 48 48" fill="none" xmlns="http://www.w3.org/2000/svg">
<path d="M41.67 13.48C41.27 13.74 40.7 13.98 40.46 14.25C40.37 14.34 40.32 14.44 40.34 14.54V15.57L40.04 16.58L39.74 17.58L39.41 18.68L38.73 20.93L38.07 23.15L37.57 24.82C37.57 25.08 37.56 25.34 37.54 25.59C37.47 26.55 37.27 27.47 36.95 28.33C36.76 28.86 36.53 29.37 36.25 29.85C36.15 30.04 36.03 30.23 35.91 30.41C35.51 31.04 35.03 31.62 34.5 32.13C34.09 32.54 33.64 32.92 33.15 33.24C33.15 33.24 33.15 33.24 33.14 33.24C33.06 33.31 32.97 33.37 32.87 33.42C32.56 33.63 32.23 33.81 31.89 33.97C31.66 34.09 31.43 34.19 31.19 34.28C31.14 34.31 31.08 34.33 31.03 34.35C30.46 34.62 29.8 34.8 29.14 34.89C29.1 34.9 29.07 34.9 29.03 34.91C28.63 34.98 28.24 35.04 27.84 35.07C27.66 35.09 27.47 35.1 27.29 35.1L26.58 35.06L23.16 34.88C23.16 34.87 23.15 34.88 23.15 34.88L21.43 34.79C21.3 34.79 21.16 34.79 21.03 34.78C20.49 34.76 19.97 34.7 19.45 34.59C19.44 34.59 19.44 34.59 19.44 34.59C18.49 34.41 17.58 34.09 16.73 33.66C16.26 33.42 15.8 33.15 15.37 32.84C15.19 32.71 15.02 32.57 14.85 32.42C14.37 32.02 13.94 31.59 13.54 31.15C13.48 31.09 13.43 31.03 13.38 30.97C13.32 30.91 13.26 30.84 13.21 30.78C12.83 30.3 12.51 29.81 12.25 29.29C12.01 28.83 11.82 28.34 11.67 27.8C11.61 27.61 11.56 27.43 11.52 27.23C11.51 27.22 11.5 27.2 11.5 27.18C11.4 26.77 11.31 26.34 11.26 25.91C11.2 25.58 11.17 25.25 11.17 24.91C11.15 24.78 11.15 24.64 11.15 24.51L13.06 21.56L14.93 18.68L15.78 17.37L16.55 16.19L16.81 15.78V14.75C16.83 14.52 16.84 14.28 16.83 14.06C16.82 13.36 16.68 12.68 16.45 12.03C16.23 11.34 15.92 10.69 15.6 10.09C15.22 9.4 14.82 8.78 14.49 8.22C14 7.4 13.66 6.73 13.75 6.26C14.47 6.09 15.23 6 16 6H32C36.18 6 39.78 8.6 41.27 12.26C41.43 12.65 41.57 13.06 41.67 13.48Z" fill="#304FFE"/>
<path d="M42 16V16.27L40.62 17.07L39.74 17.58L38.77 18.14L36.83 19.27L34.93 20.37L32.99 21.49L32.22 21.94C32.22 22.42 32.1 22.86 31.88 23.26C31.57 23.84 31.05 24.32 30.39 24.73C29.72 25.14 28.9 25.47 27.98 25.71C27.98 25.71 27.98 25.7 27.97 25.71C24.41 26.63 19.55 26.21 17.19 24.45C16.53 23.96 16.07 23.36 15.87 22.67C15.81 22.44 15.78 22.19 15.78 21.94V14.75C15.79 14.6 15.69 14.45 15.51 14.3C14.97 13.87 13.7 13.46 12.28 13.05C11.17 12.74 9.98 12.43 8.98 12.13C8.19 11.89 7.52 11.65 7.12 11.42C7.3 11.07 7.51 10.72 7.73 10.39C9.13 8.34 11.27 6.83 13.75 6.26C14.47 6.09 15.23 6 16 6H26.8C32.17 6.94 37.12 9.13 41.27 12.26C41.43 12.65 41.57 13.06 41.67 13.48C41.85 14.14 41.96 14.82 41.99 15.53C42 15.68 42 15.84 42 16Z" fill="#4928F4"/>
<path d="M42 16.0001V20.4101L41.78 21.0901L41.03 23.4201L40.25 25.8201L39.84 27.1001L39.46 28.2901L39.09 29.4201L38.73 30.5401L38.54 31.1301L38.29 31.9101C38.29 32.6701 38.27 33.3401 38.22 33.9101C38.21 33.9701 38.2 34.0301 38.2 34.0901C38.14 34.6201 38.06 35.0701 37.93 35.4501C37.92 35.5101 37.9 35.5701 37.88 35.6201C37.62 36.3401 37.23 36.8001 36.65 37.1001C36.51 37.1801 36.35 37.2401 36.18 37.3001C35.65 37.4801 34.98 37.5701 34.16 37.6201C33.56 37.6601 32.87 37.6701 32.09 37.6701H31.4L30.21 37.6201L30 37.6101L27.83 37.5201L25.63 37.4301L18.38 37.1301L16.5 37.0501H16.24C15.46 37.0401 14.79 36.9901 14.21 36.9101C13.37 36.7801 12.72 36.5601 12.23 36.2301C11.53 35.7801 11.12 35.1201 10.88 34.2001C10.82 33.9801 10.77 33.7501 10.74 33.5001C10.64 32.9201 10.59 32.2501 10.56 31.5001C10.56 31.3501 10.56 31.2001 10.55 31.0401C10.54 31.0301 10.55 31.0301 10.55 31.0301V30.4501C10.54 30.1601 10.54 29.8601 10.54 29.5501L10.59 27.9401L10.62 26.7901L10.66 25.4501V25.2601L10.73 22.8001L10.8 20.3401L10.87 18.0301L10.93 15.7601L10.95 15.1601C10.95 14.8501 9.9 14.6701 8.73 14.5201C7.8 14.4001 6.78 14.2901 6.17 14.1501C6.22 13.9201 6.27 13.6901 6.33 13.4701C6.51 12.7501 6.78 12.0701 7.12 11.4201C7.3 11.0701 7.51 10.7201 7.73 10.3901C9.89 9.44006 12.14 8.70006 14.49 8.22006C16.55 7.79006 18.7 7.56006 20.92 7.56006C28.28 7.56006 35.08 10.0501 40.46 14.2501C40.98 14.6501 41.49 15.0801 41.99 15.5301C42 15.6801 42 15.8401 42 16.0001Z" fill="#6200EA"/>
<path d="M42 18.3701V22.9101L41.45 23.9701L40.4 26.0201L39.84 27.1001L39.33 28.0901L39.11 28.5201C39.11 28.8301 39.11 29.1301 39.09 29.4201C39.09 29.8501 39.07 30.2601 39.04 30.6401C39 31.0901 38.94 31.5001 38.88 31.8801C38.73 32.6701 38.52 33.3501 38.22 33.9101C38.18 33.9801 38.14 34.0501 38.1 34.1101C37.99 34.2901 37.86 34.4601 37.72 34.6201C37.54 34.8401 37.34 35.0301 37.11 35.1901C36.77 35.4501 36.37 35.6601 35.91 35.8201C35.34 36.0301 34.68 36.1701 33.9 36.2501C33.39 36.3001 32.83 36.3301 32.22 36.3301L31.8 36.3501L29.72 36.4701H29.71L27.5 36.6001L25.25 36.7301L22.15 36.9101L18.38 37.1301L17.83 37.1601C17.32 37.1601 16.84 37.1301 16.38 37.0701C16.33 37.0601 16.29 37.0501 16.24 37.0501C15.56 36.9401 14.94 36.7601 14.38 36.5101C13.7 36.2101 13.11 35.8101 12.61 35.3301C12.17 34.9001 11.79 34.4101 11.48 33.8601C11.41 33.7301 11.34 33.6101 11.28 33.4701C10.98 32.8801 10.74 32.2201 10.56 31.5001C10.53 31.3801 10.5 31.2501 10.48 31.1201C10.42 30.8901 10.37 30.6501 10.34 30.4001C10.23 29.7601 10.17 29.0801 10.14 28.3701V28.3601C10.13 28.0701 10.12 27.7901 10.12 27.4901L9.63 26.3201L9.56 26.1401L9.5 25.9901L8.75 24.2001L8.63 23.9101L7.91 22.1801L7.11 20.2501C7.11 20.2501 7.11 20.2501 7.1 20.2501L6.29 18.3001L6 17.5901V16.0001C6 15.3701 6.06 14.7501 6.17 14.1501C6.22 13.9201 6.27 13.6901 6.33 13.4701C7.18 12.9801 8.07 12.5301 8.98 12.1301C11.06 11.2001 13.29 10.5101 15.6 10.0901C17.32 9.78011 19.11 9.61011 20.92 9.61011C28.23 9.61011 34.86 12.2601 40.04 16.5801C40.24 16.7401 40.43 16.9001 40.62 17.0701C41.09 17.4801 41.55 17.9101 42 18.3701Z" fill="#673AB7"/>
<path d="M42 21.3499V26.4899L41.43 27.6799L40.35 29.9299L40.34 29.9599C40.34 30.3899 40.32 30.7799 40.29 31.1299C40.19 32.2799 39.91 33.0099 39.45 33.4599C39.12 33.7999 38.71 33.9899 38.2 34.0899C38.17 34.0999 38.13 34.0999 38.1 34.1099C37.94 34.1399 37.77 34.1599 37.59 34.1599C36.97 34.2199 36.24 34.1799 35.4 34.1199C35.31 34.1199 35.21 34.1099 35.11 34.0999C34.5 34.0599 33.85 34.0199 33.13 33.9899C32.74 33.9799 32.33 33.9699 31.91 33.9699H31.89L30.88 34.0499H30.87L28.6 34.2099L26.01 34.4099L25.63 34.4399L22.6 34.6599L21.03 34.7799L19.48 34.8899C19.21 34.8899 18.95 34.8899 18.69 34.8799C18.69 34.8799 18.68 34.8699 18.68 34.8799C17.55 34.8599 16.54 34.7899 15.64 34.6199C14.81 34.4799 14.08 34.2599 13.46 33.9299C12.82 33.6199 12.29 33.1799 11.86 32.6199C11.45 32.0699 11.15 31.3799 10.96 30.5499C10.96 30.5399 10.96 30.5399 10.96 30.5399C10.82 29.8699 10.74 29.0899 10.74 28.2099L10.59 27.9399L9.7 26.3499L9.57 26.1299L9.5 25.9899L8.57 24.3399L8.11 23.5099L7.53 22.4799L6.53 20.6899L6 19.7499V16.0699C6.88 15.4899 7.79 14.9799 8.73 14.5199C9.87 13.9399 11.05 13.4499 12.28 13.0499C13.62 12.6099 15.02 12.2599 16.45 12.0299C17.9 11.7899 19.39 11.6699 20.92 11.6699C27.72 11.6699 33.96 14.0999 38.77 18.1399C38.99 18.3099 39.2 18.4999 39.41 18.6799C40.25 19.4299 41.05 20.2399 41.78 21.0899C41.86 21.1799 41.94 21.2599 42 21.3499Z" fill="#8E24AA"/>
<path d="M42 24.71V31.94C41.76 31.8 41.43 31.63 41.02 31.45C40.8 31.34 40.55 31.23 40.29 31.13C39.91 30.96 39.5 30.8 39.04 30.64C38.94 30.6 38.84 30.57 38.73 30.54C38.55 30.47 38.36 30.41 38.17 30.35C37.58 30.17 36.93 30 36.25 29.85C35.99 29.8 35.72 29.75 35.45 29.71C34.58 29.56 33.65 29.47 32.68 29.46C32.6 29.45 32.51 29.45 32.43 29.45L29.86 29.47L26.36 29.49H26.35L18.86 29.55C16.48 29.55 15.02 30.12 14.14 30.35C14.14 30.35 14.13 30.35 14.13 30.36C13.2 30.6 12.91 30.45 12.83 28.82C12.81 28.37 12.8 27.79 12.8 27.08L12.24 26.65L11.26 25.91L10.66 25.45L10.54 25.36L8.88 24.1L8.63 23.91L8.11 23.51L7.15 22.79L6 21.91V18.51C6.1 18.43 6.19 18.36 6.29 18.3C7.74 17.3 9.29 16.45 10.93 15.76C12.39 15.14 13.93 14.65 15.51 14.3C15.94 14.21 16.38 14.12 16.83 14.06C18.16 13.83 19.53 13.72 20.92 13.72C26.93 13.72 32.45 15.81 36.83 19.27C37.49 19.79 38.13 20.34 38.73 20.93C39.55 21.71 40.32 22.54 41.03 23.42C41.17 23.6 41.31 23.78 41.45 23.97C41.64 24.21 41.82 24.46 42 24.71Z" fill="#C2185B"/>
<path d="M42 28.72V32C42 32.65 41.94 33.29 41.82 33.91C41.64 34.83 41.33 35.71 40.91 36.53C40.69 36.58 40.44 36.58 40.16 36.54C39.53 36.43 38.79 36.1 37.99 35.67C37.95 35.66 37.91 35.64 37.88 35.62C37.63 35.49 37.37 35.35 37.11 35.19C36.58 34.9 36.02 34.58 35.46 34.28C35.34 34.22 35.22 34.16 35.11 34.1C34.47 33.77 33.81 33.47 33.15 33.24C33.15 33.24 33.15 33.24 33.14 33.24C33 33.19 32.85 33.14 32.7 33.1C32.13 32.94 31.55 32.84 30.99 32.84L29.89 32.52L25.02 31.11C25.02 31.11 25.02 31.11 25.01 31.11L22.02 30.24H22.01L20.71 29.86C16.95 29.86 14.64 31.46 13.52 30.85C13.08 30.62 12.82 30.04 12.73 28.9C12.7 28.58 12.69 28.22 12.69 27.8L11.52 27.23L11.47 27.21H11.46L10.62 26.79L9.7 26.35L9.63 26.32L9.46 26.23L7.5 25.28L6 24.55V21.12C6.17 20.97 6.35 20.83 6.53 20.69C6.72 20.54 6.91 20.4 7.1 20.25C7.11 20.25 7.11 20.25 7.11 20.25C8.29 19.4 9.54 18.65 10.87 18.03C12.42 17.29 14.07 16.72 15.78 16.35C16.03 16.29 16.29 16.23 16.55 16.19C17.97 15.92 19.43 15.78 20.92 15.78C26.19 15.78 31.03 17.49 34.93 20.37C36.06 21.21 37.11 22.14 38.07 23.15C38.86 23.98 39.59 24.88 40.25 25.82C40.3 25.89 40.35 25.96 40.4 26.02C40.77 26.56 41.11 27.11 41.43 27.68C41.64 28.02 41.82 28.37 42 28.72Z" fill="#D81B60"/>
<path d="M41.82 33.9101C41.64 34.8301 41.33 35.7101 40.91 36.5301C40.72 36.9001 40.51 37.2501 40.28 37.5901C40.14 37.8001 39.99 38.0001 39.84 38.1901C39.48 38.0501 38.95 37.8501 38.3 37.6301C38.3 37.6301 38.3 37.6301 38.3 37.6201C37.81 37.4501 37.25 37.2701 36.65 37.1001C36.48 37.0501 36.31 37.0001 36.13 36.9501C35.42 36.7601 34.68 36.5901 33.96 36.4901C33.36 36.3901 32.77 36.3301 32.22 36.3301L31.76 36.2001H31.75L29.33 35.5001L27.84 35.0701L26.18 34.5901H26.17L25.63 34.4401L19.1 32.5601L17.22 32.0201L15.82 31.6901L13.54 31.1501L13.26 31.0801C13.26 31.0801 13.26 31.0801 13.25 31.0801L10.96 30.5501C10.96 30.5401 10.96 30.5401 10.96 30.5401L10.55 30.4501L10.34 30.4001L8.67 30.0101L8.48 29.9601L7.06 28.7901L6 27.9001V23.8201C6.37 23.4601 6.75 23.1201 7.15 22.7901C7.27 22.6801 7.4 22.5801 7.53 22.4801C7.65 22.3801 7.78 22.2801 7.91 22.1801C8.82 21.4901 9.78 20.8701 10.8 20.3401C12.1 19.6401 13.48 19.0801 14.93 18.6801C15.21 18.5901 15.49 18.5101 15.78 18.4501C17.42 18.0401 19.14 17.8301 20.92 17.8301C25.39 17.8301 29.55 19.1801 32.99 21.4901C34.7 22.6401 36.24 24.0201 37.54 25.5901C38.2 26.3801 38.8 27.2101 39.33 28.0901C39.38 28.1601 39.42 28.2201 39.46 28.2901C39.78 28.8201 40.08 29.3701 40.35 29.9301C40.6 30.4301 40.82 30.9301 41.02 31.4501C41.34 32.2501 41.6 33.0701 41.82 33.9101Z" fill="#F50057"/>
<path d="M40.28 37.5899C40.14 37.7999 39.99 37.9999 39.84 38.1899C39.4 38.7399 38.92 39.2399 38.38 39.6799C37.91 40.0699 37.41 40.4199 36.88 40.7199C36.68 40.6699 36.48 40.6099 36.27 40.5299C35.61 40.2999 34.92 39.9199 34.28 39.5199C33.32 38.9099 32.49 38.2499 32.12 37.9499C31.98 37.8299 31.91 37.7699 31.91 37.7699L30.21 37.6199L30 37.5999L27.8 37.4099L25.52 37.2099L22.15 36.9099L16.81 36.4399L16.79 36.4299L14.91 35.5199L13.01 34.5999L11.48 33.8599L11.15 33.6999L10.74 33.4999L9.32 32.8099L7.43 31.8999L6.84 31.6099L6 31.3499V26.8799C6.47 26.3199 6.97 25.7899 7.5 25.2799C7.84 24.9599 8.2 24.6399 8.57 24.3399C8.63 24.2899 8.69 24.2399 8.75 24.1999C8.79 24.1499 8.84 24.1199 8.88 24.0999C9.47 23.6199 10.09 23.1899 10.73 22.7999C11.47 22.3299 12.25 21.9099 13.06 21.5599C13.93 21.1699 14.84 20.8399 15.78 20.5899C17.41 20.1299 19.14 19.8899 20.92 19.8899C25 19.8899 28.77 21.1299 31.88 23.2599C33.87 24.6199 35.59 26.3399 36.95 28.3299C37.4 28.9699 37.8 29.6499 38.17 30.3499C38.3 30.6099 38.43 30.8699 38.54 31.1299C38.66 31.3799 38.77 31.6299 38.88 31.8799C39.09 32.3999 39.28 32.9199 39.45 33.4599C39.77 34.4599 40.01 35.4799 40.16 36.5399C40.21 36.8899 40.25 37.2399 40.28 37.5899Z" fill="#FF1744"/>
<path d="M38.39 39.4199C38.39 39.4999 38.39 39.5899 38.38 39.6799C37.91 40.0699 37.41 40.4199 36.88 40.7199C36.66 40.8399 36.44 40.9599 36.21 41.0599C35.98 41.1699 35.75 41.2699 35.51 41.3599C35.17 41.1799 34.71 40.9599 34.22 40.7499C33.53 40.4399 32.78 40.1599 32.2 40.0699C32.06 40.0399 31.93 40.0299 31.81 40.0299L30.17 39.8199H30.15L28.11 39.5499L26.05 39.2799L25.09 39.1599L17.53 38.1799C17.04 38.1799 16.52 38.1499 15.98 38.0799C15.32 38.0199 14.63 37.9199 13.94 37.7799C13.26 37.6599 12.57 37.4999 11.91 37.3299C11.22 37.1699 10.54 36.9799 9.91 36.7999C9.18 36.5799 8.5 36.3699 7.93 36.1799C7.46 36.0299 7.06 35.8899 6.75 35.7799C6.57 35.3499 6.42 34.8999 6.31 34.4399C6.1 33.6599 6 32.8399 6 31.9999V30.3299C6.32 29.7999 6.67 29.2799 7.06 28.7899C7.77 27.8499 8.58 26.9899 9.46 26.2299C9.49 26.1899 9.53 26.1599 9.56 26.1399L9.57 26.1299C9.88 25.8499 10.2 25.5999 10.54 25.3599C10.58 25.3199 10.62 25.2899 10.66 25.2599C10.82 25.1399 10.99 25.0199 11.17 24.9099C12.6 23.9399 14.18 23.1799 15.87 22.6699C17.47 22.1899 19.16 21.9399 20.92 21.9399C24.41 21.9399 27.67 22.9699 30.39 24.7299C32.4 26.0199 34.13 27.7199 35.45 29.7099C35.61 29.9399 35.76 30.1699 35.91 30.4099C36.6 31.5799 37.17 32.8399 37.59 34.1599C37.64 34.3099 37.68 34.4599 37.72 34.6199C37.8 34.8899 37.87 35.1699 37.93 35.4499C37.95 35.5199 37.97 35.5899 37.99 35.6699C38.13 36.2999 38.23 36.9599 38.3 37.6199C38.3 37.6299 38.3 37.6299 38.3 37.6299C38.36 38.2199 38.39 38.8199 38.39 39.4199Z" fill="#FF5722"/>
<path d="M36.33 39.42C36.33 39.77 36.31 40.15 36.27 40.53C36.25 40.71 36.23 40.89 36.21 41.06C35.98 41.17 35.75 41.27 35.51 41.36C35.06 41.53 34.6 41.67 34.13 41.77C33.81 41.84 33.48 41.9 33.15 41.93H33.14C32.83 41.74 32.47 41.51 32.1 41.25C31.43 40.78 30.73 40.25 30.17 39.82C30.16 39.81 30.16 39.81 30.15 39.8C29.56 39.35 29.14 39.01 29.14 39.01L28.08 39.05L26.04 39.12L25.09 39.16L21.27 39.3L18.04 39.42C17.83 39.43 17.58 39.43 17.27 39.42H17.26C16.84 39.41 16.34 39.38 15.79 39.33C15.15 39.28 14.45 39.22 13.74 39.15C13.05 39.07 12.35 38.99 11.68 38.91C10.94 38.83 10.24 38.74 9.64 38.66C9.17 38.6 8.76 38.55 8.43 38.51C8.15 38.19 7.9 37.86 7.66 37.5C7.3 36.96 6.99 36.39 6.75 35.78C6.57 35.35 6.42 34.9 6.31 34.44C6.6 33.55 6.98 32.71 7.43 31.9C7.79 31.24 8.21 30.61 8.67 30.01C9.12 29.42 9.61 28.87 10.14 28.37V28.36C10.29 28.21 10.44 28.07 10.59 27.94C10.87 27.68 11.16 27.44 11.46 27.21H11.47C11.48 27.19 11.49 27.19 11.5 27.18C11.74 26.99 11.99 26.82 12.24 26.65C13.72 25.64 15.39 24.89 17.19 24.45C18.38 24.16 19.63 24 20.92 24C23.46 24 25.86 24.61 27.97 25.71H27.98C29.79 26.64 31.39 27.92 32.68 29.46C33.39 30.28 34 31.18 34.5 32.13C34.85 32.77 35.15 33.44 35.4 34.12C35.42 34.18 35.44 34.23 35.46 34.28C35.63 34.78 35.78 35.3 35.91 35.82C36 36.19 36.07 36.57 36.13 36.95C36.15 37.07 36.17 37.18 36.18 37.3C36.28 37.99 36.33 38.7 36.33 39.42Z" fill="#FF6F00"/>
<path d="M34.28 39.4201V39.5201C34.28 39.8601 34.25 40.2901 34.22 40.7501C34.19 41.0901 34.16 41.4401 34.13 41.7701C33.81 41.8401 33.48 41.9001 33.15 41.9301H33.14C32.76 41.9801 32.39 42.0001 32 42.0001H30.25L29.87 41.8901L27.9 41.2901L25.9 40.6901L21.27 39.3001L19.27 38.7001C19.27 38.7001 18.44 39.0301 17.27 39.4201H17.26C16.81 39.5701 16.32 39.7301 15.8 39.8901C15.15 40.0801 14.46 40.2701 13.78 40.4201C13.08 40.5801 12.39 40.7001 11.77 40.7501C11.58 40.7701 11.39 40.7801 11.22 40.7801C10.66 40.4701 10.12 40.1001 9.63 39.6901C9.2 39.3301 8.8 38.9401 8.43 38.5101C8.15 38.1901 7.9 37.8601 7.66 37.5001C7.73 37.0501 7.81 36.6101 7.93 36.1801C8.23 34.9901 8.7 33.8501 9.32 32.8101C9.66 32.2201 10.04 31.6501 10.48 31.1201C10.49 31.0901 10.52 31.0601 10.55 31.0401C10.54 31.0301 10.55 31.0301 10.55 31.0301C10.68 30.8601 10.82 30.7001 10.96 30.5501C10.96 30.5401 10.96 30.5401 10.96 30.5401C11.37 30.1001 11.79 29.6801 12.25 29.2901C12.41 29.1601 12.56 29.0301 12.73 28.9001C12.76 28.8701 12.79 28.8501 12.83 28.8201C15.08 27.1001 17.89 26.0601 20.92 26.0601C24.36 26.0601 27.49 27.3501 29.86 29.4701C31 30.5001 31.97 31.7301 32.7 33.1001C32.76 33.2001 32.82 33.3101 32.87 33.4201C32.96 33.6001 33.05 33.7901 33.13 33.9901C33.46 34.7101 33.72 35.4701 33.9 36.2501C33.92 36.3301 33.94 36.4101 33.96 36.4901C34.04 36.8601 34.11 37.2401 34.16 37.6201C34.24 38.2101 34.28 38.8101 34.28 39.4201Z" fill="#FF9800"/>
<path d="M32.22 39.4201C32.22 39.6201 32.21 39.8401 32.2 40.0701C32.18 40.4401 32.15 40.8401 32.1 41.2501C32.08 41.5001 32.04 41.7501 32 42.0001H26.52L25.46 41.8301L21.32 41.1701L20.73 41.0801L19.38 40.8601C18.79 40.8601 17.51 41.1201 16.16 41.3701C15.45 41.5001 14.73 41.6401 14.08 41.7301C14 41.7401 13.92 41.7501 13.85 41.7601H13.84C13.14 41.6101 12.46 41.3801 11.82 41.0801C11.62 40.9901 11.42 40.8901 11.22 40.7801C10.66 40.4701 10.12 40.1001 9.63 39.6901C9.62 39.5701 9.61 39.4701 9.61 39.4201C9.61 39.1601 9.62 38.9101 9.64 38.6601C9.68 38.0201 9.77 37.4001 9.91 36.8001C10.13 35.8901 10.45 35.0101 10.88 34.2001C10.96 34.0301 11.05 33.8601 11.15 33.7001C11.19 33.6201 11.24 33.5501 11.28 33.4701C11.46 33.1801 11.66 32.9001 11.86 32.6201C12.28 32.0701 12.75 31.5501 13.25 31.0801C13.26 31.0801 13.26 31.0801 13.26 31.0801C13.3 31.0401 13.34 31.0001 13.38 30.9701C13.43 30.9301 13.47 30.8801 13.52 30.8501C13.72 30.6701 13.92 30.5101 14.13 30.3601C14.13 30.3501 14.14 30.3501 14.14 30.3501C16.03 28.9401 18.37 28.1101 20.92 28.1101C22.9 28.1101 24.74 28.6101 26.35 29.4901H26.36C27.74 30.2501 28.94 31.2801 29.89 32.5201C30.26 33.0001 30.59 33.5101 30.87 34.0501H30.88C30.93 34.1501 30.98 34.2501 31.03 34.3501C31.33 34.9401 31.57 35.5601 31.75 36.2001H31.76C31.77 36.2501 31.79 36.3001 31.8 36.3501C31.92 36.7801 32.02 37.2201 32.09 37.6701C32.1 37.7601 32.11 37.8601 32.12 37.9501C32.19 38.4301 32.22 38.9201 32.22 39.4201Z" fill="#FFC107"/>
<path d="M30.17 39.3099C30.17 39.4699 30.17 39.6399 30.15 39.7999V39.8099C30.15 39.8199 30.15 39.8199 30.15 39.8199C30.13 40.5399 30.03 41.2499 29.87 41.8899C29.87 41.9299 29.86 41.9599 29.84 41.9999H25.17L21.32 41.1699L20.81 41.0599L20.73 41.0799L16.46 41.9599L16.27 41.9999H16C15.36 41.9999 14.73 41.9399 14.12 41.8199C14.03 41.7999 13.94 41.7799 13.85 41.7599H13.84C13.14 41.6099 12.46 41.3799 11.82 41.0799C11.8 40.9699 11.78 40.8599 11.77 40.7499C11.7 40.3199 11.67 39.8699 11.67 39.4199C11.67 39.2499 11.67 39.0799 11.68 38.9099C11.71 38.3699 11.79 37.8399 11.91 37.3299C11.99 36.9499 12.1 36.5799 12.23 36.2299C12.34 35.9199 12.47 35.6199 12.61 35.3299C12.73 35.0799 12.87 34.8399 13.01 34.5999C13.15 34.3699 13.3 34.1499 13.46 33.9299C13.86 33.3799 14.33 32.8699 14.85 32.4199C15.15 32.1599 15.48 31.9099 15.82 31.6899C17.28 30.7299 19.03 30.1699 20.92 30.1699C21.29 30.1699 21.65 30.1899 22 30.2399H22.02C23.09 30.3599 24.09 30.6599 25.01 31.1099C25.02 31.1099 25.02 31.1099 25.02 31.1099C26.47 31.8199 27.7 32.8899 28.6 34.2099C28.75 34.4299 28.9 34.6699 29.03 34.9099C29.14 35.0999 29.24 35.2999 29.33 35.4999C29.47 35.8099 29.6 36.1399 29.71 36.4699H29.72C29.83 36.8399 29.93 37.2099 30 37.5999V37.6099C30.11 38.1599 30.17 38.7299 30.17 39.3099Z" fill="#FFD54F"/>
<path d="M28.11 39.5201V39.5501C28.11 40.1401 28.04 40.7201 27.9 41.2901C27.85 41.5301 27.78 41.7701 27.69 42.0001H23.21L20.92 41.3701L18.63 42.0001H16C15.36 42.0001 14.73 41.9401 14.12 41.8201C14.1 41.7901 14.09 41.7601 14.08 41.7301C13.94 41.3001 13.83 40.8701 13.78 40.4201C13.74 40.1301 13.72 39.8301 13.72 39.5201C13.72 39.4001 13.72 39.2701 13.74 39.1501C13.75 38.6801 13.82 38.2201 13.94 37.7801C14 37.4801 14.09 37.1901 14.21 36.9101C14.25 36.7701 14.31 36.6401 14.38 36.5101C14.53 36.1701 14.71 35.8401 14.91 35.5201C15.13 35.2001 15.37 34.9001 15.64 34.6201C15.96 34.2601 16.32 33.9301 16.73 33.6601C17.43 33.1501 18.23 32.7701 19.1 32.5601C19.68 32.4001 20.29 32.3201 20.92 32.3201C22.92 32.3201 24.71 33.1201 26.01 34.4101C26.06 34.4601 26.12 34.5201 26.17 34.5901H26.18C26.32 34.7401 26.45 34.8901 26.58 35.0601C26.95 35.5301 27.26 36.0401 27.5 36.6001C27.62 36.8601 27.72 37.1301 27.8 37.4101C27.81 37.4501 27.82 37.4801 27.83 37.5201C27.97 38.0101 28.06 38.5201 28.08 39.0501C28.1 39.2001 28.11 39.3601 28.11 39.5201Z" fill="#FFE082"/>
<path d="M26.06 39.5199C26.06 39.9299 26.01 40.3199 25.9 40.6899C25.8 41.0899 25.65 41.4699 25.46 41.8299C25.43 41.8899 25.36 41.9999 25.36 41.9999H16.48C16.47 41.9899 16.46 41.9699 16.46 41.9599C16.34 41.7699 16.24 41.5799 16.16 41.3699C15.96 40.9099 15.84 40.4099 15.8 39.8899C15.78 39.7699 15.78 39.6399 15.78 39.5199C15.78 39.4599 15.78 39.3899 15.79 39.3299C15.8 38.8899 15.86 38.4699 15.98 38.0799C16.08 37.7199 16.21 37.3899 16.38 37.0699C16.38 37.0699 16.39 37.0599 16.39 37.0499C16.51 36.8399 16.64 36.6299 16.79 36.4299C17.28 35.7699 17.93 35.2299 18.68 34.8799C18.69 34.8799 18.69 34.8799 18.69 34.8799C18.93 34.7599 19.18 34.6599 19.44 34.5899C19.44 34.5899 19.44 34.5899 19.45 34.5899C19.91 34.4499 20.41 34.3799 20.92 34.3799C21.51 34.3799 22.08 34.4699 22.6 34.6599C22.79 34.7099 22.97 34.7899 23.15 34.8799C23.15 34.8799 23.15 34.8799 23.16 34.8799C24.02 35.2899 24.75 35.9299 25.25 36.7299C25.35 36.8799 25.44 37.0399 25.52 37.2099C25.56 37.2799 25.6 37.3599 25.63 37.4299C25.86 37.9499 26 38.5199 26.04 39.1199C26.05 39.1699 26.05 39.2199 26.05 39.2799C26.06 39.3599 26.06 39.4399 26.06 39.5199Z" fill="#FFECB3"/>
<path d="M30 11H18C14.1 11 11 14.1 11 18V30C11 33.9 14.1 37 18 37H30C33.9 37 37 33.9 37 30V18C37 14.1 33.9 11 30 11Z" stroke="white" stroke-width="2" stroke-miterlimit="10" stroke-linecap="round" stroke-linejoin="round"/>
<path d="M31 17C31.5523 17 32 16.5523 32 16C32 15.4477 31.5523 15 31 15C30.4477 15 30 15.4477 30 16C30 16.5523 30.4477 17 31 17Z" fill="white"/>
<path d="M24 30C27.3137 30 30 27.3137 30 24C30 20.6863 27.3137 18 24 18C20.6863 18 18 20.6863 18 24C18 27.3137 20.6863 30 24 30Z" stroke="white" stroke-width="2" stroke-miterlimit="10" stroke-linecap="round" stroke-linejoin="round"/>
</svg>
