<svg width="192" height="50" viewBox="0 0 192 50" fill="none" xmlns="http://www.w3.org/2000/svg">
<g clip-path="url(#clip0_13_21)">
<path d="M8.51064 35.6426C8.51064 41.1273 1.37903e-06 41.1273 1.13928e-06 35.6426L0 4.57878C-2.3975e-07 -0.905899 8.51064 -0.9059 8.51064 4.57878V35.6426Z" fill="#989898"/>
<path d="M22.3407 45.7446C22.3407 51.2293 13.8301 51.2293 13.8301 45.7446V14.6808C13.8301 9.19616 22.3407 9.19616 22.3407 14.6808V45.7446Z" fill="#989898"/>
<path d="M36.1698 35.6426C36.1698 41.1273 27.6592 41.1273 27.6592 35.6426V4.57878C27.6592 -0.905899 36.1698 -0.9059 36.1698 4.57878V35.6426Z" fill="#989898"/>
<path d="M49.9999 45.7446C49.9999 51.2293 41.4893 51.2293 41.4893 45.7446V15.6808C41.4893 10.1961 49.9999 10.1961 49.9999 15.6808V45.7446Z" fill="#989898"/>
<mask id="mask0_13_21" style="mask-type:luminance" maskUnits="userSpaceOnUse" x="65" y="0" width="127" height="50">
<path d="M192 0H65V50H192V0Z" fill="white"/>
</mask>
<g mask="url(#mask0_13_21)">
<path d="M80.292 32.144V36.5H65.211V13.4H80.292V17.756H70.326V22.871H78.972V27.029H70.326V32.144H80.292ZM89.0788 36.5H84.0958V19.307H88.2868L88.6828 21.65C90.2998 19.901 92.2138 19.01 94.5568 19.01C96.6688 19.01 98.0878 19.637 98.9788 20.825C99.2428 21.155 99.4408 21.485 99.6058 21.881C101.289 19.934 103.203 19.01 105.579 19.01C107.757 19.01 109.209 19.637 110.1 20.825C111.024 22.046 111.288 23.465 111.288 26.963V36.5H106.338V28.085C106.338 26.105 106.206 25.247 105.678 24.554C105.117 23.894 104.358 23.63 103.17 23.63C102.081 23.63 101.124 23.96 100.134 24.785C100.2 25.412 100.2 26.105 100.2 26.963V36.5H95.2168V28.085C95.2168 26.105 95.1178 25.247 94.5568 24.554C94.0288 23.894 93.2698 23.63 92.1478 23.63C90.9268 23.63 89.8048 24.059 89.0788 24.818V36.5ZM123.498 36.764C122.211 36.764 120.825 36.533 119.505 36.038L115.71 36.5V11.42H120.693V21.551C121.914 19.868 123.564 18.977 125.808 18.977C129.636 18.977 132.21 21.848 132.21 27.227C132.21 33.365 128.712 36.764 123.498 36.764ZM120.693 25.643V32.309C121.452 32.639 122.178 32.771 122.937 32.771C125.346 32.771 127.029 31.187 127.029 27.722C127.029 24.818 125.775 23.399 123.96 23.399C122.508 23.399 121.452 24.191 120.693 25.643ZM140.351 36.5H135.368V11.42H140.351V36.5ZM152.929 36.764C146.659 36.764 143.524 33.86 143.524 27.854C143.524 22.112 147.418 18.977 151.873 18.977C156.592 18.977 158.869 21.815 158.869 26.765C158.869 27.689 158.803 28.514 158.737 29.339H148.606C149.101 31.913 150.85 32.804 154.051 32.804C155.371 32.804 156.724 32.672 157.879 32.507L157.648 36.434C156.46 36.632 154.843 36.764 152.929 36.764ZM151.741 22.673C150.025 22.673 148.771 23.894 148.507 26.633L154.15 26.336C154.15 23.828 153.391 22.673 151.741 22.673ZM167.196 36.5H162.213V19.307H166.404L166.8 21.65C168.417 19.901 170.331 19.01 172.674 19.01C174.786 19.01 176.205 19.637 177.096 20.825C177.36 21.155 177.558 21.485 177.723 21.881C179.406 19.934 181.32 19.01 183.696 19.01C185.874 19.01 187.326 19.637 188.217 20.825C189.141 22.046 189.405 23.465 189.405 26.963V36.5H184.455V28.085C184.455 26.105 184.323 25.247 183.795 24.554C183.234 23.894 182.475 23.63 181.287 23.63C180.198 23.63 179.241 23.96 178.251 24.785C178.317 25.412 178.317 26.105 178.317 26.963V36.5H173.334V28.085C173.334 26.105 173.235 25.247 172.674 24.554C172.146 23.894 171.387 23.63 170.265 23.63C169.044 23.63 167.922 24.059 167.196 24.818V36.5Z" fill="#989898"/>
</g>
</g>
<defs>
<clipPath id="clip0_13_21">
<rect width="192" height="50" fill="white"/>
</clipPath>
</defs>
</svg>
