<svg width="179" height="50" viewBox="0 0 179 50" fill="none" xmlns="http://www.w3.org/2000/svg">
<g clip-path="url(#clip0_13_12)">
<path fill-rule="evenodd" clip-rule="evenodd" d="M0.185185 28.2612C0 28.2612 0 28.2612 0 28.2612C3.92481 56.171 45.682 55.8965 50 28.2612C49.8148 28.2612 49.8148 28.2612 49.8148 28.2612C47.963 28.2612 46.2963 28.4464 44.4444 28.8168C39.9178 48.9808 9.84407 49.1483 5.74074 28.6316C3.88889 28.4464 2.03704 28.2612 0.185185 28.2612Z" fill="#989898"/>
<path fill-rule="evenodd" clip-rule="evenodd" d="M0 21.0389H0.185185C2.03704 21.0389 3.7037 20.8537 5.55556 20.4833C10.0437 0.490862 39.9069 0.0640202 44.0741 20.4833C45.7407 20.8537 47.5926 21.0389 49.4444 21.0389H49.6296C46.1194 -7.04303 3.90498 -6.72986 0 21.0389Z" fill="#989898"/>
<path fill-rule="evenodd" clip-rule="evenodd" d="M45.5554 24.5575C37.4073 23.4464 29.9999 19.1872 24.9999 12.5205C19.9999 19.1872 12.5925 23.4464 4.44434 24.5575C12.5925 25.6687 20.1851 30.1131 24.9999 36.7798C29.9999 30.1131 37.4073 25.6687 45.5554 24.5575Z" fill="#989898"/>
<mask id="mask0_13_12" style="mask-type:luminance" maskUnits="userSpaceOnUse" x="65" y="0" width="114" height="50">
<path d="M179 0H65V50H179V0Z" fill="white"/>
</mask>
<g mask="url(#mask0_13_12)">
<path d="M70.26 36.5V15.56H75.21V36.5H70.26ZM65.46 15.56H80.01V19.61H65.46V15.56ZM65.46 32.45H80.01V36.5H65.46V32.45ZM92.5017 36.86C90.7417 36.86 89.2217 36.51 87.9417 35.81C86.6817 35.11 85.7117 34.11 85.0317 32.81C84.3717 31.51 84.0417 29.96 84.0417 28.16C84.0417 26.32 84.3917 24.75 85.0917 23.45C85.8117 22.15 86.8117 21.16 88.0917 20.48C89.3717 19.8 90.8817 19.46 92.6217 19.46C94.1417 19.46 95.4817 19.73 96.6417 20.27C97.8217 20.81 98.7517 21.57 99.4317 22.55C100.132 23.51 100.512 24.66 100.572 26H95.8917C95.7317 25.08 95.3717 24.4 94.8117 23.96C94.2717 23.5 93.5417 23.27 92.6217 23.27C91.8617 23.27 91.1817 23.46 90.5817 23.84C90.0017 24.22 89.5417 24.77 89.2017 25.49C88.8817 26.21 88.7217 27.1 88.7217 28.16C88.7217 29.74 89.0817 30.96 89.8017 31.82C90.5417 32.68 91.4417 33.11 92.5017 33.11C93.1217 33.11 93.6617 33 94.1217 32.78C94.6017 32.56 95.0017 32.25 95.3217 31.85C95.6417 31.43 95.8617 30.96 95.9817 30.44H100.662C100.542 31.74 100.122 32.87 99.4017 33.83C98.6817 34.79 97.7317 35.54 96.5517 36.08C95.3717 36.6 94.0217 36.86 92.5017 36.86ZM111.773 36.86C109.993 36.86 108.463 36.51 107.183 35.81C105.903 35.11 104.913 34.11 104.213 32.81C103.533 31.51 103.193 29.96 103.193 28.16C103.193 26.34 103.533 24.79 104.213 23.51C104.913 22.21 105.903 21.21 107.183 20.51C108.463 19.81 109.993 19.46 111.773 19.46C114.453 19.46 116.543 20.23 118.043 21.77C119.563 23.31 120.323 25.44 120.323 28.16C120.323 29.96 119.983 31.51 119.303 32.81C118.623 34.11 117.643 35.11 116.363 35.81C115.083 36.51 113.553 36.86 111.773 36.86ZM111.773 33.08C112.973 33.08 113.913 32.64 114.593 31.76C115.293 30.88 115.643 29.68 115.643 28.16C115.643 26.62 115.293 25.42 114.593 24.56C113.913 23.68 112.973 23.24 111.773 23.24C110.553 23.24 109.593 23.68 108.893 24.56C108.213 25.42 107.873 26.62 107.873 28.16C107.873 29.68 108.213 30.88 108.893 31.76C109.593 32.64 110.553 33.08 111.773 33.08ZM134.555 36.5V26.21C134.555 25.35 134.335 24.66 133.895 24.14C133.455 23.62 132.875 23.36 132.155 23.36C131.335 23.36 130.575 23.64 129.875 24.2C129.195 24.74 128.475 25.68 127.715 27.02L127.055 23.06C127.815 21.76 128.735 20.84 129.815 20.3C130.895 19.74 131.995 19.46 133.115 19.46C134.395 19.46 135.485 19.73 136.385 20.27C137.305 20.81 138.005 21.56 138.485 22.52C138.985 23.48 139.235 24.61 139.235 25.91V36.5H134.555ZM123.425 36.5V19.82H127.955L128.105 22.79V36.5H123.425ZM148.457 36.5V19.82H153.137V36.5H148.457ZM143.057 36.5V32.72H158.597V36.5H143.057ZM145.157 23.6V19.82H150.797V23.6H145.157ZM148.277 17.6V13.22H153.257V17.6H148.277ZM170.549 36.86C168.789 36.86 167.269 36.51 165.989 35.81C164.729 35.11 163.759 34.11 163.079 32.81C162.419 31.51 162.089 29.96 162.089 28.16C162.089 26.32 162.439 24.75 163.139 23.45C163.859 22.15 164.859 21.16 166.139 20.48C167.419 19.8 168.929 19.46 170.669 19.46C172.189 19.46 173.529 19.73 174.689 20.27C175.869 20.81 176.799 21.57 177.479 22.55C178.179 23.51 178.559 24.66 178.619 26H173.939C173.779 25.08 173.419 24.4 172.859 23.96C172.319 23.5 171.589 23.27 170.669 23.27C169.909 23.27 169.229 23.46 168.629 23.84C168.049 24.22 167.589 24.77 167.249 25.49C166.929 26.21 166.769 27.1 166.769 28.16C166.769 29.74 167.129 30.96 167.849 31.82C168.589 32.68 169.489 33.11 170.549 33.11C171.169 33.11 171.709 33 172.169 32.78C172.649 32.56 173.049 32.25 173.369 31.85C173.689 31.43 173.909 30.96 174.029 30.44H178.709C178.589 31.74 178.169 32.87 177.449 33.83C176.729 34.79 175.779 35.54 174.599 36.08C173.419 36.6 172.069 36.86 170.549 36.86Z" fill="#989898"/>
</g>
</g>
<defs>
<clipPath id="clip0_13_12">
<rect width="179" height="50" fill="white"/>
</clipPath>
</defs>
</svg>
