<svg width="48" height="48" viewBox="0 0 48 48" fill="none" xmlns="http://www.w3.org/2000/svg">
<path d="M24 44C35.0457 44 44 35.0457 44 24C44 12.9543 35.0457 4 24 4C12.9543 4 4 12.9543 4 24C4 35.0457 12.9543 44 24 44Z" fill="#E60023"/>
<path d="M24.4439 11.416C15.8116 11.416 11.2285 17.2106 11.2285 23.5191C11.2285 26.4529 12.79 30.1045 15.2885 31.2675C15.6669 31.4437 15.8701 31.3676 15.957 31.0006C16.0239 30.7222 16.3608 29.3637 16.5123 28.7322C16.5608 28.5306 16.537 28.3575 16.3739 28.1591C15.5469 27.156 14.8854 25.3129 14.8854 23.5945C14.8854 19.1829 18.2254 14.9145 23.9154 14.9145C28.8285 14.9145 32.2685 18.2629 32.2685 23.0514C32.2685 28.4614 29.5362 32.2098 25.9816 32.2098C24.0185 32.2098 22.5485 30.586 23.02 28.5945C23.5854 26.2175 24.6769 23.653 24.6769 21.936C24.6769 20.4006 23.8539 19.1191 22.147 19.1191C20.14 19.1191 18.5285 21.1945 18.5285 23.976C18.5285 25.746 19.127 26.9445 19.127 26.9445C19.127 26.9445 17.1447 35.326 16.7816 36.886C16.3796 38.6083 16.5363 41.0276 16.7102 42.6094C17.1613 42.7863 17.6126 42.9631 18.079 43.1075C18.8959 41.7797 20.114 39.6018 20.5654 37.8652C20.8093 36.9291 21.8123 33.1106 21.8123 33.1106C22.4639 34.3545 24.3685 35.4075 26.3954 35.4075C32.4269 35.4075 36.7739 29.8606 36.7739 22.9675C36.7739 16.3591 31.3823 11.416 24.4439 11.416Z" fill="white"/>
</svg>
